<svg width="24" height="24" viewBox="0 0 24 24" fill="none" xmlns="http://www.w3.org/2000/svg">
<path fill-rule="evenodd" clip-rule="evenodd" d="M5.96345 13.2501H6.03655C6.7757 13.2501 7.38321 13.2501 7.87471 13.2968C8.38544 13.3454 8.84779 13.4497 9.26834 13.7074C9.68586 13.9632 10.0369 14.3143 10.2928 14.7318C10.5505 15.1523 10.6547 15.6147 10.7033 16.1254C10.75 16.6169 10.75 17.2244 10.75 17.9636V18.0367C10.75 18.7758 10.75 19.3833 10.7033 19.8748C10.6547 20.3856 10.5505 20.8479 10.2928 21.2685C10.0369 21.686 9.68586 22.037 9.26834 22.2929C8.84779 22.5506 8.38544 22.6549 7.87471 22.7034C7.38322 22.7501 6.7757 22.7501 6.03656 22.7501H5.96344C5.2243 22.7501 4.61678 22.7501 4.12529 22.7034C3.61456 22.6549 3.15221 22.5506 2.73166 22.2929C2.31414 22.037 1.9631 21.686 1.70725 21.2685C1.44953 20.8479 1.34527 20.3856 1.29671 19.8748C1.24998 19.3833 1.24999 18.7758 1.25 18.0367V17.9636C1.24999 17.2244 1.24998 16.6169 1.29671 16.1254C1.34527 15.6147 1.44953 15.1523 1.70725 14.7318C1.9631 14.3143 2.31414 13.9632 2.73166 13.7074C3.15221 13.4497 3.61456 13.3454 4.12529 13.2968C4.61679 13.2501 5.22431 13.2501 5.96345 13.2501Z" fill="#FCFCFC"/>
<path fill-rule="evenodd" clip-rule="evenodd" d="M17.9635 13.2501H18.0365C18.7757 13.2501 19.3832 13.2501 19.8747 13.2968C20.3854 13.3454 20.8478 13.4497 21.2683 13.7074C21.6859 13.9632 22.0369 14.3143 22.2928 14.7318C22.5505 15.1523 22.6547 15.6147 22.7033 16.1254C22.75 16.6169 22.75 17.2244 22.75 17.9636V18.0367C22.75 18.7758 22.75 19.3833 22.7033 19.8748C22.6547 20.3856 22.5505 20.8479 22.2928 21.2685C22.0369 21.686 21.6859 22.037 21.2683 22.2929C20.8478 22.5506 20.3854 22.6549 19.8747 22.7034C19.3832 22.7501 18.7757 22.7501 18.0366 22.7501H17.9634C17.2243 22.7501 16.6168 22.7501 16.1253 22.7034C15.6146 22.6549 15.1522 22.5506 14.7317 22.2929C14.3141 22.037 13.9631 21.686 13.7072 21.2685C13.4495 20.8479 13.3453 20.3856 13.2967 19.8748C13.25 19.3833 13.25 18.7758 13.25 18.0367V17.9636C13.25 17.2244 13.25 16.6169 13.2967 16.1254C13.3453 15.6147 13.4495 15.1523 13.7072 14.7318C13.9631 14.3143 14.3141 13.9632 14.7317 13.7074C15.1522 13.4497 15.6146 13.3454 16.1253 13.2968C16.6168 13.2501 17.2243 13.2501 17.9635 13.2501Z" fill="#FCFCFC"/>
<path fill-rule="evenodd" clip-rule="evenodd" d="M5.96345 1.25012H6.03655C6.7757 1.25011 7.38321 1.2501 7.87471 1.29683C8.38544 1.34539 8.84779 1.44966 9.26834 1.70737C9.68586 1.96323 10.0369 2.31426 10.2928 2.73178C10.5505 3.15233 10.6547 3.61468 10.7033 4.12541C10.75 4.61691 10.75 5.22442 10.75 5.96356V6.03668C10.75 6.77583 10.75 7.38334 10.7033 7.87483C10.6547 8.38557 10.5505 8.84791 10.2928 9.26846C10.0369 9.68598 9.68586 10.037 9.26834 10.2929C8.84779 10.5506 8.38544 10.6549 7.87471 10.7034C7.38322 10.7501 6.7757 10.7501 6.03656 10.7501H5.96344C5.2243 10.7501 4.61678 10.7501 4.12529 10.7034C3.61456 10.6549 3.15221 10.5506 2.73166 10.2929C2.31414 10.037 1.9631 9.68598 1.70725 9.26846C1.44953 8.84791 1.34527 8.38557 1.29671 7.87483C1.24998 7.38334 1.24999 6.77582 1.25 6.03667V5.96358C1.24999 5.22443 1.24998 4.61691 1.29671 4.12541C1.34527 3.61468 1.44953 3.15233 1.70725 2.73178C1.9631 2.31426 2.31414 1.96323 2.73166 1.70737C3.15221 1.44966 3.61456 1.34539 4.12529 1.29683C4.61679 1.2501 5.22431 1.25011 5.96345 1.25012Z" fill="#FCFCFC"/>
<path fill-rule="evenodd" clip-rule="evenodd" d="M17.9635 1.25012H18.0365C18.7757 1.25011 19.3832 1.2501 19.8747 1.29683C20.3854 1.34539 20.8478 1.44966 21.2683 1.70737C21.6859 1.96323 22.0369 2.31426 22.2928 2.73178C22.5505 3.15233 22.6547 3.61468 22.7033 4.12541C22.75 4.61691 22.75 5.22442 22.75 5.96356V6.03668C22.75 6.77583 22.75 7.38334 22.7033 7.87483C22.6547 8.38557 22.5505 8.84791 22.2928 9.26846C22.0369 9.68598 21.6859 10.037 21.2683 10.2929C20.8478 10.5506 20.3854 10.6549 19.8747 10.7034C19.3832 10.7501 18.7757 10.7501 18.0366 10.7501H17.9634C17.2243 10.7501 16.6168 10.7501 16.1253 10.7034C15.6146 10.6549 15.1522 10.5506 14.7317 10.2929C14.3141 10.037 13.9631 9.68598 13.7072 9.26846C13.4495 8.84791 13.3453 8.38557 13.2967 7.87483C13.25 7.38334 13.25 6.77582 13.25 6.03667V5.96358C13.25 5.22443 13.25 4.61691 13.2967 4.12541C13.3453 3.61468 13.4495 3.15233 13.7072 2.73178C13.9631 2.31426 14.3141 1.96323 14.7317 1.70737C15.1522 1.44966 15.6146 1.34539 16.1253 1.29683C16.6168 1.2501 17.2243 1.25011 17.9635 1.25012Z" fill="#FCFCFC"/>
</svg>
