<svg width="186" height="24" viewBox="0 0 186 24" fill="none" xmlns="http://www.w3.org/2000/svg">
<path d="M36.8721 2.10681H42.3454L47.2246 12.666L52.101 2.10681H57.5743V19.6646H53.9851V10.9609L53.9705 5.7677L49.0701 15.9257H45.3818L40.4718 5.71755V10.9609V19.6646H36.8721V2.10681Z" fill="white"/>
<path d="M74.5357 16.8061H62.9885V2.10681H59.3838V19.6646L72.1979 19.6562L74.5357 16.8061Z" fill="white"/>
<path d="M84.5528 10.6588L91.9791 2.10681H87.595L82.1242 8.32722L76.4032 2.10681H72.1895L79.5498 10.709L74.5358 16.8152V19.6649C75.8588 19.6649 77.1129 19.0604 77.9491 18.0214L81.9756 13.0183L87.3499 19.6649H91.9816L84.5528 10.6616V10.6588Z" fill="white"/>
<path d="M132.042 6.16948H135.631V8.52107C136.795 6.81307 138.676 5.87244 140.931 5.87244C145.043 5.87244 147.84 8.64484 147.84 12.9052C147.84 17.1656 144.994 19.938 140.934 19.938C138.681 19.938 136.797 19.0469 135.634 17.3636V24.0003H132.042V6.16948ZM144.248 12.9272C144.248 10.031 142.584 8.24603 140.01 8.24603C137.436 8.24603 135.631 10.053 135.631 12.9272C135.631 15.8014 137.389 17.5094 139.991 17.5094C142.593 17.5094 144.251 15.8014 144.251 12.9272H144.248Z" fill="white"/>
<path d="M166.646 16.1599C166.646 13.0657 170.411 12.4468 173.728 11.7262C175.931 11.2559 177.218 10.8351 177.218 9.84495C177.218 8.85481 176.178 8.23597 174.272 8.23597C172.19 8.23597 170.821 9.22886 170.364 10.7773H166.989C167.63 7.86466 170.438 5.85962 174.377 5.85962C178.315 5.85962 180.835 7.56762 180.835 10.8874V19.6776H177.246V17.9201C175.958 19.2568 174.099 19.9747 171.946 19.9747C168.678 19.9747 166.648 18.44 166.648 16.1599H166.646ZM172.812 17.6946C174.446 17.6946 176.228 17.0758 177.246 15.9866V12.7686C176.503 13.3132 175.315 13.5607 174.003 13.8578C171.924 14.3281 170.163 14.6747 170.163 16.0609C170.163 17.1005 171.153 17.6946 172.812 17.6946Z" fill="white"/>
<path d="M116.051 16.1727C116.051 13.0785 119.816 12.4596 123.133 11.739C125.336 11.2687 126.623 10.8479 126.623 9.85777C126.623 8.86762 125.584 8.24878 123.678 8.24878C121.596 8.24878 120.226 9.24168 119.769 10.7902H116.395C117.035 7.87748 119.844 5.87244 123.782 5.87244C127.721 5.87244 130.241 7.58044 130.241 10.9002V19.6904H126.651V17.9329C125.364 19.2696 123.504 19.9875 121.351 19.9875C118.083 19.9875 116.054 18.4528 116.054 16.1727H116.051ZM122.217 17.7074C123.851 17.7074 125.633 17.0886 126.651 15.9994V12.7814C125.908 13.326 124.72 13.5736 123.408 13.8706C121.329 14.3409 119.569 14.6875 119.569 16.0737C119.569 17.1133 120.559 17.7074 122.217 17.7074Z" fill="white"/>
<path d="M182.187 2.10681H185.786V19.6649H182.187V2.10681Z" fill="white"/>
<path d="M97.4092 10.8847C97.4092 5.45339 101.595 1.83435 107.41 1.83435C111.519 1.83435 114.129 3.64387 115.6 5.92811L112.938 7.50306C111.802 5.77173 109.968 4.69663 107.41 4.69663C103.482 4.69663 101.002 7.24057 101.002 10.8875C101.002 14.5345 103.482 17.0533 107.41 17.0533C109.943 17.0533 111.802 16.0033 112.836 14.3502L115.6 15.8972C114.101 18.1284 111.491 19.9379 107.41 19.9379C101.595 19.9379 97.4092 16.291 97.4092 10.8875V10.8847Z" fill="white"/>
<path d="M165.742 8.69458V6.16971H160.873V3.41931H157.271C157.271 4.93753 156.041 6.16696 154.523 6.16696H153.682V8.69183H157.274V16.1702C157.274 18.4723 158.487 19.6852 161.086 19.6852H165.742V17.1108H162.673C161.386 17.1108 160.874 16.6405 160.874 15.6256V8.69183H165.745L165.742 8.69458Z" fill="white"/>
<path fill-rule="evenodd" clip-rule="evenodd" d="M152.781 2.10681H149.191V4.85446H150.033C151.551 4.85446 152.781 3.62503 152.781 2.10681ZM149.191 6.16925H152.781V19.6902H149.191V6.16925Z" fill="white"/>
<path d="M13.1689 10.0082H0.000360272C0.000360272 4.47816 4.51097 5.46209e-05 10.0811 5.46209e-05H13.1689V10.0082Z" fill="white"/>
<path d="M28.0928 10.0082H14.9242C14.9242 4.47816 19.4348 5.46209e-05 25.005 5.46209e-05H28.0928V10.0082Z" fill="white"/>
<path d="M0 11.765L13.1686 11.765C13.1686 17.295 8.65797 21.7731 3.0878 21.7731L-1.74988e-06 21.7731L0 11.765Z" fill="white"/>
<path d="M14.9248 21.7728H28.0934C28.0934 16.2428 23.5828 11.7647 18.0126 11.7647H14.9248V21.7728Z" fill="white"/>
</svg>
