<svg width="1436" height="140" viewBox="0 0 1436 140" fill="none" xmlns="http://www.w3.org/2000/svg">
<path d="M84.8174 65.3926H0.00228119C0.00228119 29.7753 29.0539 0.933105 64.9297 0.933105H84.8174V65.3926Z" fill="#D9D9D6"/>
<path d="M180.946 65.3926H96.1312C96.1312 29.7753 125.183 0.933105 161.059 0.933105H180.946V65.3926Z" fill="white"/>
<path d="M0 76.7012L84.8151 76.7012C84.8151 112.318 55.7635 141.161 19.8877 141.161L-1.12705e-05 141.161L0 76.7012Z" fill="white"/>
<path d="M277.912 65.3926H193.097C193.097 29.7753 222.149 0.933105 258.024 0.933105H277.912V65.3926Z" fill="white"/>
<path d="M193.095 76.7012L277.91 76.7012C277.91 112.318 248.858 141.161 212.982 141.161L193.095 141.161L193.095 76.7012Z" fill="#D9D9D6"/>
<path d="M289.219 141.16H374.034C374.034 105.543 344.982 76.7007 309.106 76.7007H289.219V141.16Z" fill="white"/>
<path d="M471.006 65.3926H386.191C386.191 29.7753 415.242 0.933105 451.118 0.933105H471.006V65.3926Z" fill="#D9D9D6"/>
<path d="M567.129 65.3926H482.314C482.314 29.7753 511.365 0.933105 547.241 0.933105H567.129V65.3926Z" fill="white"/>
<path d="M386.184 76.7012L470.999 76.7012C470.999 112.318 441.947 141.161 406.071 141.161L386.184 141.161L386.184 76.7012Z" fill="white"/>
<path d="M482.312 141.16H567.127C567.127 105.543 538.075 76.7007 502.199 76.7007H482.312V141.16Z" fill="#D9D9D6"/>
<path d="M1242.91 65.3926H1158.09C1158.09 29.7753 1187.14 0.933105 1223.02 0.933105H1242.91V65.3926Z" fill="#D9D9D6"/>
<path d="M1339.03 65.3926H1254.22C1254.22 29.7753 1283.27 0.933105 1319.15 0.933105H1339.03V65.3926Z" fill="white"/>
<path d="M1158.09 76.7012L1242.9 76.7012C1242.9 112.318 1213.85 141.161 1177.98 141.161L1158.09 141.161L1158.09 76.7012Z" fill="white"/>
<path d="M1436 65.3926H1351.18C1351.18 29.7753 1380.24 0.933105 1416.11 0.933105H1436V65.3926Z" fill="white"/>
<path d="M1351.18 76.7012L1436 76.7012C1436 112.318 1406.95 141.161 1371.07 141.161L1351.18 141.161L1351.18 76.7012Z" fill="#D9D9D6"/>
<path d="M663.859 65.3926H579.044C579.044 29.7753 608.096 0.933105 643.972 0.933105H663.859V65.3926Z" fill="#D9D9D6"/>
<path d="M759.989 65.3926H675.174C675.174 29.7753 704.226 0.933105 740.102 0.933105H759.989V65.3926Z" fill="white"/>
<path d="M579.043 76.7012L663.858 76.7012C663.858 112.318 634.806 141.161 598.931 141.161L579.043 141.161L579.043 76.7012Z" fill="white"/>
<path d="M856.956 65.3926H772.141C772.141 29.7753 801.193 0.933105 837.068 0.933105H856.956V65.3926Z" fill="white"/>
<path d="M772.139 76.7012L856.954 76.7012C856.954 112.318 827.902 141.161 792.026 141.161L772.139 141.161L772.139 76.7012Z" fill="#D9D9D6"/>
<path d="M868.26 141.16H953.075C953.075 105.543 924.023 76.7007 888.147 76.7007H868.26V141.16Z" fill="white"/>
<path d="M1050.05 65.3926H965.236C965.236 29.7753 994.287 0.933105 1030.16 0.933105H1050.05V65.3926Z" fill="#D9D9D6"/>
<path d="M1146.17 65.3926H1061.36C1061.36 29.7753 1090.41 0.933105 1126.29 0.933105H1146.17V65.3926Z" fill="white"/>
<path d="M965.227 76.7012L1050.04 76.7012C1050.04 112.318 1020.99 141.161 985.114 141.161L965.227 141.161L965.227 76.7012Z" fill="white"/>
<path d="M1061.36 141.16H1146.17C1146.17 105.543 1117.12 76.7007 1081.24 76.7007H1061.36V141.16Z" fill="#D9D9D6"/>
</svg>
